<?xml version="1.0" standalone="no"?>
<!DOCTYPE svg PUBLIC "-//W3C//DTD SVG 20010904//EN"
 "http://www.w3.org/TR/2001/REC-SVG-20010904/DTD/svg10.dtd">
<svg version="1.0" xmlns="http://www.w3.org/2000/svg"
 width="559.000000pt" height="548.000000pt" viewBox="0 0 559.000000 548.000000"
 preserveAspectRatio="xMidYMid meet">

<g transform="translate(0.000000,548.000000) scale(0.100000,-0.100000)"
fill="#000000" stroke="none">
<path d="M2500 5460 c-58 -5 -148 -17 -200 -26 -158 -27 -451 -103 -500 -130
-14 -8 -64 -29 -113 -48 -80 -32 -235 -110 -332 -168 -113 -67 -147 -90 -254
-169 -189 -140 -309 -252 -453 -422 -274 -325 -465 -697 -571 -1112 -97 -375
-88 -989 18 -1350 101 -344 222 -588 442 -897 129 -180 309 -365 518 -533 210
-168 538 -353 769 -431 360 -123 750 -185 1071 -169 357 17 706 97 1005 229
688 306 1177 797 1473 1482 36 83 112 317 141 434 57 235 83 516 66 745 -10
142 -45 368 -73 475 -68 254 -115 385 -200 556 -173 351 -365 603 -647 852
-58 52 -130 110 -160 129 -30 20 -73 51 -95 68 -96 75 -359 220 -530 292 -212
88 -461 153 -705 183 -118 14 -543 21 -670 10z m490 -100 c275 -20 562 -80
775 -163 122 -47 371 -174 475 -241 220 -141 383 -275 551 -451 103 -109 274
-346 342 -475 154 -294 234 -512 296 -810 31 -151 43 -279 43 -474 1 -324 -34
-515 -167 -911 -47 -140 -163 -365 -267 -517 -29 -43 -75 -111 -103 -152 -27
-41 -54 -73 -60 -72 -17 4 -117 129 -186 232 -192 287 -220 398 -234 919 -7
272 -13 325 -52 490 -29 124 -93 294 -134 355 -9 14 -31 52 -49 85 -144 265
-377 495 -660 652 -72 39 -250 117 -320 138 -30 9 -73 24 -95 32 -22 8 -76 23
-120 33 -44 10 -126 34 -182 54 -56 19 -131 40 -165 46 -35 7 -80 18 -100 26
-32 11 -44 11 -89 -2 -62 -19 -99 -41 -99 -60 0 -8 45 -28 121 -52 l122 -39
-64 -12 c-329 -65 -649 -232 -902 -471 -260 -247 -449 -607 -501 -955 -8 -57
-17 -213 -20 -365 -9 -472 -58 -639 -266 -915 -16 -22 -38 -52 -47 -66 -32
-47 -108 -138 -115 -139 -4 0 -22 21 -40 46 -18 25 -55 73 -81 107 -27 34 -67
94 -90 132 -22 39 -60 103 -84 142 -24 40 -43 75 -43 78 0 2 -11 28 -24 57
-104 223 -173 446 -201 646 -61 432 -34 903 70 1232 47 148 152 403 180 440 7
8 27 42 45 75 36 66 132 212 158 242 10 10 31 38 47 63 45 67 244 279 321 343
38 31 105 86 149 122 148 122 367 250 608 356 220 97 583 181 847 196 58 3
107 7 109 9 8 7 155 4 301 -6z m-977 -2435 c46 -22 123 -98 150 -149 19 -35
22 -57 22 -141 -1 -88 -4 -106 -27 -151 -30 -56 -106 -131 -165 -160 -52 -26
-144 -25 -205 3 -58 26 -134 103 -158 158 -36 84 -34 197 6 281 22 47 99 131
138 151 69 36 172 40 239 8z m1753 6 c79 -36 157 -132 180 -221 30 -118 1
-233 -80 -316 -94 -95 -201 -114 -322 -58 -63 30 -107 83 -135 165 -84 247 28
446 251 448 43 0 79 -6 106 -18z m-943 -596 c31 -9 78 -28 104 -43 57 -32 129
-104 138 -139 3 -14 16 -38 28 -55 31 -42 30 -136 -2 -198 -60 -117 -211 -219
-388 -261 -71 -17 -106 -20 -186 -16 -114 7 -167 26 -73 27 63 0 162 24 264
64 122 48 258 160 317 261 23 39 26 50 17 71 -7 13 -16 24 -22 24 -5 0 -32
-30 -59 -67 -55 -76 -66 -86 -155 -147 -113 -77 -290 -136 -411 -136 -53 0
-118 22 -162 56 -39 29 -42 56 -18 159 26 111 89 208 194 298 137 117 260 147
414 102z m320 -267 c3 -10 4 -18 2 -18 -5 0 -55 80 -55 87 1 13 48 -49 53 -69z
m-783 -860 c188 -27 546 -32 670 -9 114 21 389 20 470 -2 74 -20 250 -102 313
-146 145 -102 281 -306 353 -531 6 -19 -152 -117 -296 -184 -131 -61 -390
-139 -610 -185 -276 -57 -647 -57 -955 0 -331 62 -675 191 -918 345 -114 73
-109 64 -86 146 28 100 70 188 129 267 108 146 312 277 475 306 109 20 282 17
455 -7z"/>
<path d="M1930 2832 c-66 -66 -64 -184 4 -257 27 -29 41 -35 73 -35 36 0 43 5
68 40 25 37 27 46 23 113 -5 84 -35 140 -82 157 -43 15 -55 13 -86 -18z"/>
<path d="M3530 2822 c-83 -83 -73 -214 22 -271 29 -18 34 -19 61 -5 65 34 91
172 49 268 -19 43 -24 46 -58 46 -29 0 -44 -8 -74 -38z"/>
</g>
</svg>
